<?xml version="1.0" encoding="utf-8"?>
<svg version="1.1" id="Layer_1" xmlns="http://www.w3.org/2000/svg" x="0px" y="0px" width="139px" height="52px" viewBox="0 0 139 52" enable-background="new 0 0 139 52" xmlns:bx="https://boxy-svg.com"><defs><bx:export><bx:file format="svg" path="logo/kaleo.svg"/></bx:export></defs><title>logo/kaleo</title><desc>Created with Sketch.</desc><g><path fill="#324549" stroke="#324549" stroke-width="1.5" stroke-miterlimit="10" d="M46.181,15.971c3.213,0,5.5,0.944,6.859,2.832 c1.377,1.878,2.066,4.962,2.066,9.259c0,4.302-0.689,7.396-2.066,9.285c-1.358,1.865-3.646,2.801-6.859,2.801 c-3.502,0-6.132-0.073-7.894-0.221c-0.173-0.021-0.287-0.059-0.344-0.111c-0.058-0.053-0.086-0.162-0.086-0.331V16.664 c0-0.189,0.028-0.309,0.086-0.362c0.058-0.053,0.172-0.09,0.344-0.111C40.049,16.045,42.679,15.971,46.181,15.971z M45.78,18.773 h-5.023v18.575h5.425c2.181,0,3.72-0.713,4.62-2.14c0.918-1.45,1.378-3.831,1.378-7.146c0-3.284-0.488-5.657-1.464-7.108 C49.739,19.501,48.094,18.773,45.78,18.773z"/><path fill="#324549" stroke="#324549" stroke-width="1.5" stroke-miterlimit="10" d="M61.707,17.702 c0,1.239-0.563,1.861-1.692,1.861c-1.13,0-1.693-0.622-1.693-1.861c0-1.217,0.563-1.825,1.693-1.825 C61.144,15.877,61.707,16.485,61.707,17.702z M59.067,22.752h1.894c0.288,0,0.431,0.159,0.431,0.475v16.292 c0,0.315-0.144,0.472-0.431,0.472h-1.894c-0.287,0-0.43-0.156-0.43-0.472V23.227C58.638,22.912,58.78,22.752,59.067,22.752z"/><path fill="#324549" stroke="#324549" stroke-width="1.5" stroke-miterlimit="10" d="M70.662,22.593 c1.493,0,2.957,0.095,4.393,0.286c0.269,0.042,0.4,0.211,0.4,0.506v1.36c0,0.315-0.144,0.474-0.428,0.474h-5.341 c-1.396,0-2.095,0.549-2.095,1.644v0.412c0,0.984,0.593,1.721,1.78,2.203l3.817,1.667c1.13,0.483,1.89,1.062,2.282,1.73 c0.392,0.672,0.589,1.575,0.589,2.707v0.347c0,1.679-0.449,2.802-1.35,3.367c-0.899,0.567-2.384,0.851-4.45,0.851 c-2.027,0-3.779-0.096-5.25-0.283c-0.288-0.043-0.431-0.2-0.431-0.472v-1.385c0-0.316,0.143-0.475,0.431-0.475h5.309 c1.187,0,1.985-0.103,2.396-0.313c0.411-0.209,0.616-0.651,0.616-1.321v-0.378c0-0.483-0.119-0.882-0.357-1.195 c-0.238-0.316-0.674-0.619-1.306-0.913l-4.076-1.701c-1.837-0.775-2.754-2.276-2.754-4.499v-0.664c0-1.665,0.593-2.763,1.78-3.29 C67.648,22.816,68.998,22.593,70.662,22.593z"/><path fill="#324549" stroke="#324549" stroke-width="1.5" stroke-miterlimit="10" d="M85.416,22.593 c1.646,0,3.098,0.095,4.361,0.286c0.267,0.042,0.401,0.221,0.401,0.539v1.36c0,0.316-0.142,0.475-0.43,0.475h-4.333 c-1.686,0-2.756,0.39-3.215,1.17s-0.688,2.437-0.688,4.977c0,2.495,0.229,4.144,0.688,4.939c0.459,0.777,1.53,1.166,3.215,1.166 h4.333c0.288,0,0.43,0.157,0.43,0.473v1.353c0,0.314-0.135,0.493-0.401,0.535c-1.264,0.188-2.718,0.283-4.361,0.283 c-1.494,0-2.646-0.126-3.46-0.378c-0.814-0.253-1.469-0.712-1.967-1.386c-0.478-0.67-0.804-1.521-0.974-2.549 c-0.173-1.026-0.26-2.506-0.26-4.437c0-1.929,0.087-3.411,0.26-4.439c0.17-1.034,0.496-1.887,0.974-2.562 c0.498-0.697,1.152-1.171,1.967-1.425C82.77,22.721,83.922,22.593,85.416,22.593z"/><path fill="#324549" stroke="#324549" stroke-width="1.5" stroke-miterlimit="10" d="M95.689,22.974 c0.842-0.253,1.969-0.38,3.388-0.38c1.434,0,2.563,0.127,3.387,0.38c1.683,0.465,2.686,1.825,3.013,4.081 c0.173,1.028,0.26,2.478,0.26,4.345c0,1.847-0.087,3.306-0.26,4.376c-0.327,2.16-1.331,3.504-3.013,4.028 c-0.881,0.229-2.011,0.346-3.387,0.346c-1.399,0-2.537-0.116-3.416-0.346c-1.647-0.503-2.649-1.845-3.014-4.028 c-0.173-1.07-0.259-2.529-0.259-4.376c0-1.866,0.087-3.315,0.259-4.345C93.012,24.799,94.024,23.439,95.689,22.974z M99.077,25.252 c-1.705,0-2.784,0.39-3.244,1.17c-0.459,0.781-0.688,2.437-0.688,4.977c0,2.495,0.228,4.144,0.688,4.939 c0.46,0.777,1.539,1.166,3.244,1.166c1.682,0,2.754-0.389,3.212-1.166c0.46-0.796,0.689-2.444,0.689-4.939 c0-2.54-0.229-4.197-0.689-4.977C101.831,25.642,100.759,25.252,99.077,25.252z"/><path fill="#324549" stroke="#324549" stroke-width="1.5" stroke-miterlimit="10" d="M115.579,22.593 c2.755,0,4.562,0.582,5.423,1.74c0.861,1.182,1.293,3.53,1.293,7.034c0,3.525-0.421,5.875-1.263,7.05 c-0.822,1.154-2.593,1.731-5.308,1.731c-1.532,0-2.795-0.064-3.79-0.188v5.791c0,0.313-0.144,0.472-0.431,0.472h-1.894 c-0.287,0-0.43-0.158-0.43-0.472V23.67c0-0.295,0.152-0.475,0.459-0.538C111.743,22.773,113.724,22.593,115.579,22.593z M115.605,25.252h-3.673v12.001c1.32,0.168,2.525,0.252,3.615,0.252c1.723,0,2.813-0.378,3.273-1.134 c0.478-0.775,0.719-2.435,0.719-4.972c0-2.54-0.231-4.197-0.69-4.977C118.391,25.642,117.311,25.252,115.605,25.252z"/><path fill="#324549" stroke="#324549" stroke-width="1.5" stroke-miterlimit="10" d="M131.824,22.593 c2.544,0,4.236,0.559,5.079,1.678c0.861,1.139,1.301,3.363,1.321,6.657v0.911c0,0.337-0.072,0.567-0.216,0.692 s-0.418,0.189-0.819,0.189h-9.125c0.038,1.932,0.297,3.211,0.775,3.839c0.497,0.629,1.512,0.945,3.042,0.945h4.707 c0.286,0,0.43,0.156,0.43,0.471v1.385c0,0.295-0.134,0.461-0.4,0.503c-1.264,0.188-2.86,0.284-4.794,0.284 c-2.681,0-4.438-0.567-5.28-1.7c-0.843-1.175-1.263-3.525-1.263-7.05c0-3.523,0.42-5.883,1.263-7.065 C127.366,23.175,129.125,22.593,131.824,22.593z M131.824,25.252c-1.512,0-2.518,0.337-3.016,1.012 c-0.496,0.675-0.756,2.01-0.773,4.001h7.433c-0.019-2.013-0.267-3.358-0.745-4.033C134.263,25.577,133.297,25.252,131.824,25.252z"/></g><g style="" transform="matrix(0.413445, 0, 0, 0.402375, 0.15685, -12.72454)"><path d="M 24.497 67.967 C 24.676 67.967 24.855 67.967 25.039 67.966 C 25.525 67.964 26.01 67.965 26.501 67.966 C 27.015 67.967 27.529 67.966 28.042 67.965 C 28.91 67.965 29.777 67.966 30.645 67.967 C 31.635 67.97 32.625 67.968 33.62 67.967 C 34.478 67.965 35.336 67.965 36.194 67.966 C 36.703 67.966 37.212 67.966 37.721 67.965 C 43.959 67.952 50.342 68.723 55.65 72.219 C 55.768 72.296 55.768 72.296 55.891 72.375 C 57.06 73.148 58.097 74.012 59.106 74.975 C 59.229 75.089 59.356 75.202 59.479 75.318 C 61.025 76.779 62.185 78.52 63.227 80.357 C 63.297 80.481 63.368 80.605 63.443 80.733 C 66.192 85.882 66.503 91.473 66.423 97.164 C 66.418 97.381 66.418 97.599 66.418 97.817 C 66.404 100.795 65.73 103.954 64.693 106.739 C 64.608 106.967 64.528 107.194 64.448 107.423 C 63.377 110.347 61.845 112.926 59.771 115.27 C 59.71 115.338 59.653 115.407 59.587 115.477 C 58.705 116.472 57.791 117.36 56.716 118.158 C 56.645 118.21 56.574 118.262 56.504 118.316 C 49.47 123.512 41.564 123.632 33.129 123.606 C 32.295 123.604 31.46 123.606 30.626 123.608 C 29.806 123.611 28.99 123.611 28.174 123.61 C 27.689 123.609 27.208 123.609 26.722 123.611 C 26.19 123.612 25.652 123.61 25.115 123.607 C 24.959 123.608 24.804 123.609 24.643 123.61 C 23.177 123.595 21.885 123.296 20.81 122.262 C 19.655 120.901 19.589 119.354 19.594 117.656 C 19.594 117.458 19.594 117.259 19.589 117.06 C 19.589 116.516 19.589 115.972 19.589 115.428 C 19.589 114.841 19.589 114.253 19.589 113.666 C 19.589 112.516 19.589 111.366 19.589 110.215 C 19.589 109.281 19.589 108.345 19.585 107.41 C 19.585 107.277 19.585 107.144 19.585 107.007 C 19.585 106.736 19.585 106.466 19.585 106.195 C 19.585 103.66 19.585 101.124 19.585 98.587 C 19.585 96.268 19.585 93.949 19.585 91.631 C 19.58 89.248 19.58 86.866 19.58 84.484 C 19.58 83.147 19.58 81.81 19.575 80.473 C 19.575 79.334 19.575 78.196 19.575 77.058 C 19.58 76.477 19.58 75.897 19.575 75.316 C 19.575 74.784 19.575 74.253 19.575 73.72 C 19.575 73.529 19.575 73.337 19.575 73.145 C 19.566 71.537 19.679 70.155 20.825 68.937 C 21.833 67.942 23.154 67.961 24.497 67.967 Z" fill="#76B94F" style="stroke-width: 1;"/><path d="M 41.96 45.312 C 42.308 45.589 42.634 45.88 42.959 46.186 C 43.265 46.472 43.581 46.729 43.911 46.985 C 44.487 47.43 45.033 47.897 45.58 48.371 C 46.311 49.001 47.056 49.6 47.82 50.182 C 48.395 50.627 48.942 51.1 49.484 51.589 C 49.932 51.991 50.403 52.365 50.875 52.743 C 51.299 53.083 51.714 53.43 52.129 53.777 C 52.897 54.422 53.675 55.053 54.453 55.68 C 55.311 56.369 56.16 57.064 57.003 57.77 C 57.456 58.148 57.909 58.52 58.366 58.889 C 59.087 59.467 59.794 60.065 60.497 60.662 C 61.459 61.479 62.425 62.291 63.41 63.081 C 64.089 63.627 64.754 64.194 65.414 64.763 C 65.909 65.19 66.414 65.609 66.927 66.017 C 67.394 66.391 67.842 66.774 68.29 67.173 C 68.813 67.647 69.36 68.089 69.916 68.525 C 71.062 69.429 72.165 70.387 73.268 71.339 C 73.877 71.859 74.494 72.362 75.121 72.861 C 75.574 73.234 76.012 73.628 76.446 74.023 C 76.804 74.336 77.177 74.631 77.549 74.926 C 79.11 76.172 79.11 76.172 79.213 77.101 C 79.237 77.898 79.162 78.535 78.648 79.175 C 78.181 79.555 77.804 79.7 77.186 79.7 C 77.186 79.799 77.186 79.898 77.186 80 C 77.181 85.872 77.172 91.744 77.163 97.615 C 77.163 98.32 77.158 99.026 77.158 99.731 C 77.158 99.872 77.158 100.012 77.158 100.157 C 77.153 102.429 77.153 104.701 77.148 106.973 C 77.148 109.306 77.144 111.638 77.139 113.971 C 77.134 115.409 77.134 116.847 77.134 118.286 C 77.134 119.273 77.13 120.261 77.13 121.248 C 77.125 121.817 77.125 122.386 77.125 122.955 C 77.13 123.477 77.125 123.999 77.125 124.522 C 77.12 124.709 77.12 124.897 77.125 125.085 C 77.134 127.243 76.63 128.882 75.14 130.471 C 74.636 130.944 74.089 131.25 73.462 131.545 C 73.367 131.592 73.273 131.639 73.174 131.687 C 71.944 132.211 70.699 132.144 69.384 132.138 C 69.12 132.138 68.851 132.14 68.587 132.141 C 67.856 132.143 67.125 132.142 66.395 132.141 C 65.607 132.14 64.82 132.142 64.033 132.144 C 62.576 132.147 61.124 132.147 59.667 132.146 C 58.324 132.145 56.98 132.145 55.636 132.146 C 55.457 132.146 55.278 132.146 55.099 132.146 C 54.825 132.146 54.552 132.147 54.283 132.147 C 51.756 132.148 49.229 132.149 46.702 132.147 C 46.608 132.147 46.509 132.147 46.415 132.147 C 45.642 132.147 44.868 132.146 44.095 132.146 C 41.078 132.144 38.065 132.145 35.048 132.148 C 31.658 132.153 28.273 132.155 24.884 132.153 C 24.521 132.153 24.158 132.153 23.795 132.153 C 23.71 132.153 23.62 132.153 23.526 132.153 C 22.187 132.152 20.843 132.154 19.5 132.156 C 17.972 132.158 16.445 132.158 14.917 132.155 C 14.139 132.153 13.362 132.153 12.584 132.156 C 11.867 132.158 11.155 132.157 10.443 132.154 C 10.184 132.153 9.929 132.153 9.67 132.155 C 7.468 132.169 5.851 131.816 4.215 130.249 C 2.801 128.759 2.575 127.135 2.575 125.167 C 2.575 124.972 2.575 124.777 2.575 124.582 C 2.57 124.047 2.57 123.512 2.57 122.977 C 2.57 122.4 2.565 121.822 2.565 121.245 C 2.565 120.245 2.561 119.245 2.561 118.245 C 2.556 116.799 2.556 115.354 2.551 113.908 C 2.547 111.563 2.542 109.217 2.537 106.872 C 2.532 104.594 2.528 102.315 2.523 100.037 C 2.523 99.896 2.523 99.756 2.523 99.611 C 2.518 98.907 2.518 98.202 2.514 97.497 C 2.499 91.652 2.49 85.808 2.481 79.963 C 2.386 79.92 2.297 79.876 2.202 79.831 C 2.018 79.745 2.018 79.745 1.835 79.656 C 1.655 79.571 1.655 79.571 1.472 79.484 C 0.925 79.184 0.68 78.833 0.486 78.257 C 0.411 77.473 0.397 76.683 0.887 76.025 C 1.622 75.268 2.481 74.627 3.306 73.967 C 3.683 73.657 4.046 73.335 4.409 73.007 C 4.989 72.48 5.587 71.983 6.2 71.494 C 6.672 71.109 7.134 70.713 7.6 70.315 C 8.279 69.729 8.972 69.155 9.675 68.593 C 10.142 68.213 10.599 67.82 11.056 67.428 C 11.744 66.835 12.437 66.255 13.149 65.686 C 14.017 64.987 14.87 64.267 15.719 63.546 C 15.879 63.409 16.035 63.274 16.195 63.137 C 16.275 63.071 16.351 63.005 16.435 62.936 C 16.883 62.557 17.336 62.187 17.798 61.825 C 18.364 61.386 18.892 60.919 19.42 60.443 C 19.882 60.038 20.358 59.658 20.834 59.276 C 21.258 58.936 21.673 58.589 22.088 58.24 C 22.611 57.8 23.139 57.365 23.672 56.935 C 24.318 56.417 24.954 55.883 25.586 55.345 C 26.053 54.947 26.524 54.556 27.005 54.171 C 27.882 53.466 28.74 52.735 29.598 52.006 C 30.574 51.175 31.55 50.35 32.549 49.549 C 32.964 49.212 33.374 48.871 33.785 48.527 C 34.426 47.992 35.067 47.462 35.718 46.941 C 36.019 46.699 36.316 46.456 36.613 46.211 C 36.788 46.066 36.962 45.923 37.141 45.779 C 37.264 45.677 37.264 45.677 37.387 45.573 C 38.692 44.52 40.522 44.46 41.96 45.312 Z M 38.593 50.948 C 38.471 51.057 38.348 51.164 38.216 51.276 C 38.094 51.387 37.966 51.498 37.839 51.612 C 37.603 51.805 37.363 51.996 37.123 52.187 C 36.505 52.684 35.897 53.191 35.293 53.701 C 34.718 54.179 34.143 54.648 33.558 55.115 C 33.143 55.452 32.733 55.796 32.323 56.14 C 31.687 56.672 31.05 57.197 30.404 57.715 C 29.131 58.74 27.863 59.769 26.609 60.822 C 26.161 61.197 25.709 61.566 25.251 61.932 C 24.667 62.402 24.106 62.893 23.55 63.393 C 23.097 63.793 22.625 64.169 22.149 64.547 C 21.701 64.91 21.263 65.282 20.825 65.656 C 20.155 66.223 19.481 66.778 18.802 67.327 C 18.312 67.723 17.826 68.128 17.345 68.533 C 16.897 68.908 16.445 69.279 15.987 69.643 C 15.398 70.119 14.818 70.608 14.243 71.103 C 13.555 71.696 12.857 72.276 12.15 72.845 C 11.028 73.748 9.934 74.682 8.84 75.612 C 8.765 75.674 8.694 75.735 8.619 75.799 C 8.548 75.859 8.477 75.918 8.407 75.98 C 8.265 76.099 8.119 76.215 7.973 76.33 C 7.577 76.64 7.313 76.871 7.134 77.338 C 7.091 77.726 7.091 77.726 7.096 78.163 C 7.096 78.333 7.096 78.504 7.096 78.68 C 7.096 78.87 7.096 79.059 7.096 79.249 C 7.096 79.45 7.096 79.652 7.096 79.853 C 7.091 80.407 7.091 80.961 7.096 81.515 C 7.096 82.112 7.091 82.709 7.091 83.306 C 7.091 84.477 7.087 85.647 7.087 86.817 C 7.087 87.768 7.087 88.719 7.087 89.67 C 7.082 92.365 7.082 95.06 7.082 97.754 C 7.082 97.973 7.082 97.973 7.082 98.195 C 7.082 98.34 7.082 98.486 7.082 98.636 C 7.082 100.995 7.082 103.354 7.077 105.713 C 7.072 108.134 7.072 110.555 7.072 112.975 C 7.072 114.335 7.072 115.694 7.068 117.054 C 7.063 118.212 7.063 119.369 7.068 120.527 C 7.068 121.118 7.068 121.708 7.063 122.299 C 7.063 122.84 7.063 123.381 7.068 123.921 C 7.068 124.117 7.068 124.313 7.063 124.509 C 7.063 124.774 7.063 125.04 7.068 125.306 C 7.068 125.454 7.068 125.602 7.068 125.754 C 7.171 126.407 7.506 126.792 7.963 127.259 C 8.44 127.543 8.845 127.549 9.387 127.543 C 9.548 127.544 9.548 127.544 9.713 127.545 C 10.071 127.547 10.429 127.545 10.787 127.543 C 11.042 127.544 11.301 127.545 11.561 127.546 C 12.272 127.548 12.984 127.547 13.696 127.545 C 14.465 127.544 15.233 127.546 16.002 127.547 C 17.506 127.55 19.009 127.549 20.513 127.548 C 21.739 127.546 22.96 127.546 24.181 127.547 C 24.356 127.547 24.53 127.547 24.709 127.547 C 25.063 127.547 25.416 127.547 25.77 127.548 C 28.99 127.549 32.205 127.548 35.425 127.545 C 38.362 127.542 41.304 127.543 44.241 127.545 C 47.542 127.548 50.842 127.549 54.142 127.547 C 54.495 127.547 54.849 127.547 55.198 127.547 C 55.372 127.546 55.547 127.546 55.721 127.546 C 56.942 127.546 58.168 127.547 59.389 127.548 C 60.874 127.55 62.364 127.549 63.849 127.546 C 64.613 127.545 65.372 127.545 66.131 127.546 C 66.824 127.548 67.521 127.547 68.215 127.544 C 68.464 127.543 68.719 127.544 68.969 127.545 C 69.313 127.546 69.652 127.545 69.997 127.543 C 70.143 127.545 70.143 127.545 70.294 127.546 C 70.968 127.536 71.345 127.366 71.868 126.952 C 72.359 126.4 72.415 125.945 72.42 125.225 C 72.42 125.056 72.42 124.885 72.42 124.71 C 72.42 124.521 72.42 124.331 72.42 124.141 C 72.42 123.94 72.42 123.74 72.42 123.539 C 72.42 122.986 72.42 122.433 72.42 121.88 C 72.42 121.284 72.425 120.688 72.425 120.092 C 72.425 118.789 72.425 117.485 72.425 116.181 C 72.429 115.368 72.429 114.555 72.429 113.741 C 72.429 111.49 72.429 109.239 72.434 106.987 C 72.434 106.843 72.434 106.699 72.434 106.55 C 72.434 106.406 72.434 106.261 72.434 106.113 C 72.434 105.82 72.434 105.527 72.434 105.235 C 72.434 105.089 72.434 104.944 72.434 104.794 C 72.434 102.44 72.434 100.085 72.439 97.731 C 72.443 95.315 72.443 92.9 72.443 90.484 C 72.443 89.127 72.443 87.77 72.448 86.413 C 72.448 85.258 72.448 84.103 72.448 82.948 C 72.448 82.358 72.448 81.768 72.448 81.178 C 72.453 80.639 72.453 80.099 72.448 79.56 C 72.448 79.364 72.448 79.169 72.453 78.974 C 72.453 78.708 72.453 78.443 72.448 78.178 C 72.448 78.03 72.448 77.883 72.448 77.731 C 72.363 77.037 71.991 76.632 71.468 76.189 C 71.364 76.098 71.255 76.008 71.147 75.914 C 70.685 75.533 70.218 75.159 69.751 74.785 C 69.275 74.399 68.813 73.998 68.347 73.597 C 67.658 73.007 66.965 72.43 66.258 71.864 C 65.424 71.185 64.603 70.481 63.783 69.782 C 62.892 69.022 61.996 68.272 61.082 67.538 C 60.483 67.053 59.898 66.554 59.314 66.055 C 58.87 65.679 58.423 65.307 57.979 64.934 C 57.451 64.496 56.928 64.055 56.405 63.611 C 55.665 62.982 54.92 62.363 54.161 61.755 C 53.746 61.419 53.336 61.078 52.925 60.734 C 52.397 60.292 51.869 59.853 51.332 59.421 C 50.719 58.929 50.116 58.428 49.517 57.924 C 49.064 57.546 48.607 57.173 48.15 56.804 C 47.504 56.286 46.872 55.752 46.24 55.213 C 45.656 54.718 45.062 54.235 44.463 53.756 C 44.109 53.469 43.761 53.175 43.416 52.88 C 43.1 52.611 42.785 52.344 42.469 52.079 C 42.304 51.941 42.139 51.802 41.978 51.663 C 41.738 51.458 41.493 51.256 41.243 51.054 C 41.135 50.961 41.135 50.961 41.026 50.864 C 40.635 50.551 40.319 50.386 39.824 50.36 C 39.235 50.44 39.027 50.559 38.593 50.948 Z" fill="#39424B" style="stroke-width: 1;"/><path d="M 54.59 76.025 C 58.621 78.445 60.827 83.253 61.94 87.582 C 62.519 89.972 62.647 92.339 62.628 94.789 C 62.623 95.227 62.623 95.664 62.623 96.102 C 62.628 97.984 62.557 99.777 62.166 101.62 C 62.1 101.975 62.043 102.33 61.982 102.686 C 60.959 108.023 57.763 113.182 53.208 116.27 C 46.764 120.497 40.21 119.995 32.521 119.995 C 32.521 106.958 32.521 93.92 32.521 80.488 C 34.02 80.34 34.02 80.34 34.53 80.335 C 34.647 80.334 34.765 80.333 34.883 80.331 C 35.006 80.331 35.124 80.331 35.251 80.33 C 35.378 80.329 35.51 80.328 35.642 80.328 C 35.916 80.326 36.194 80.326 36.467 80.325 C 36.877 80.324 37.288 80.32 37.698 80.316 C 41.498 80.295 45.255 80.816 48.206 83.376 C 48.678 83.843 48.678 83.843 49.272 84.032 C 49.503 83.711 49.715 83.389 49.927 83.055 C 50.059 82.849 50.191 82.642 50.328 82.435 C 50.394 82.329 50.46 82.223 50.53 82.113 C 50.832 81.643 51.139 81.176 51.445 80.709 C 51.568 80.525 51.69 80.342 51.808 80.158 C 51.869 80.064 51.931 79.97 51.997 79.872 C 52.138 79.658 52.275 79.444 52.416 79.23 C 52.647 78.878 52.878 78.526 53.109 78.175 C 53.18 78.066 53.251 77.957 53.326 77.845 C 53.732 77.226 54.151 76.621 54.59 76.025 Z" fill="#39424B" style="stroke-width: 1;"/><path d="M 24.497 67.967 C 24.676 67.967 24.855 67.967 25.039 67.966 C 25.525 67.964 26.01 67.965 26.501 67.966 C 27.015 67.967 27.529 67.966 28.042 67.965 C 28.91 67.965 29.777 67.966 30.645 67.967 C 31.635 67.97 32.625 67.968 33.62 67.967 C 34.478 67.965 35.336 67.965 36.194 67.966 C 36.703 67.966 37.212 67.966 37.721 67.965 C 43.959 67.952 50.342 68.723 55.65 72.219 C 55.768 72.296 55.768 72.296 55.891 72.375 C 57.06 73.148 58.097 74.012 59.106 74.975 C 59.229 75.089 59.356 75.202 59.479 75.318 C 61.025 76.779 62.185 78.52 63.227 80.357 C 63.297 80.481 63.368 80.605 63.443 80.733 C 66.192 85.882 66.503 91.473 66.423 97.164 C 66.418 97.381 66.418 97.599 66.418 97.817 C 66.404 100.795 65.73 103.954 64.693 106.739 C 64.608 106.967 64.528 107.194 64.448 107.423 C 63.377 110.347 61.845 112.926 59.771 115.27 C 59.71 115.338 59.653 115.407 59.587 115.477 C 58.705 116.472 57.791 117.36 56.716 118.158 C 56.645 118.21 56.574 118.262 56.504 118.316 C 49.47 123.512 41.564 123.632 33.129 123.606 C 32.295 123.604 31.46 123.606 30.626 123.608 C 29.806 123.611 28.99 123.611 28.174 123.61 C 27.689 123.609 27.208 123.609 26.722 123.611 C 26.19 123.612 25.652 123.61 25.115 123.607 C 24.959 123.608 24.804 123.609 24.643 123.61 C 23.177 123.595 21.885 123.296 20.81 122.262 C 19.655 120.901 19.589 119.354 19.594 117.656 C 19.594 117.458 19.594 117.259 19.589 117.06 C 19.589 116.516 19.589 115.972 19.589 115.428 C 19.589 114.841 19.589 114.253 19.589 113.666 C 19.589 112.516 19.589 111.366 19.589 110.215 C 19.589 109.281 19.589 108.345 19.585 107.41 C 19.585 107.277 19.585 107.144 19.585 107.007 C 19.585 106.736 19.585 106.466 19.585 106.195 C 19.585 103.66 19.585 101.124 19.585 98.587 C 19.585 96.268 19.585 93.949 19.585 91.631 C 19.58 89.248 19.58 86.866 19.58 84.484 C 19.58 83.147 19.58 81.81 19.575 80.473 C 19.575 79.334 19.575 78.196 19.575 77.058 C 19.58 76.477 19.58 75.897 19.575 75.316 C 19.575 74.784 19.575 74.253 19.575 73.72 C 19.575 73.529 19.575 73.337 19.575 73.145 C 19.566 71.537 19.679 70.155 20.825 68.937 C 21.833 67.942 23.154 67.961 24.497 67.967 Z M 23.484 72.087 C 23.403 72.464 23.403 72.464 23.418 72.888 C 23.413 73.053 23.413 73.219 23.413 73.389 C 23.413 73.573 23.413 73.757 23.413 73.94 C 23.413 74.135 23.413 74.33 23.413 74.525 C 23.408 75.061 23.413 75.597 23.413 76.134 C 23.413 76.712 23.413 77.29 23.413 77.868 C 23.408 79.001 23.408 80.134 23.408 81.266 C 23.413 82.187 23.413 83.107 23.413 84.028 C 23.413 84.159 23.413 84.29 23.413 84.424 C 23.413 84.69 23.413 84.956 23.408 85.222 C 23.408 87.717 23.413 90.211 23.413 92.706 C 23.418 94.847 23.418 96.989 23.413 99.13 C 23.408 101.616 23.408 104.101 23.413 106.586 C 23.413 106.851 23.413 107.116 23.413 107.381 C 23.413 107.511 23.413 107.642 23.413 107.776 C 23.413 108.696 23.413 109.615 23.408 110.535 C 23.408 111.655 23.408 112.776 23.413 113.896 C 23.413 114.468 23.413 115.04 23.413 115.612 C 23.408 116.135 23.413 116.658 23.413 117.181 C 23.413 117.371 23.413 117.56 23.413 117.75 C 23.413 118.007 23.413 118.264 23.418 118.521 C 23.418 118.665 23.418 118.808 23.418 118.955 C 23.498 119.432 23.672 119.654 24.012 119.995 C 24.356 120.092 24.356 120.092 24.733 120.077 C 24.879 120.078 25.03 120.079 25.176 120.081 C 25.336 120.079 25.497 120.078 25.662 120.076 C 25.831 120.076 26.001 120.077 26.175 120.078 C 26.642 120.08 27.104 120.078 27.566 120.074 C 28.057 120.072 28.547 120.073 29.032 120.073 C 29.857 120.073 30.683 120.071 31.503 120.066 C 32.446 120.061 33.393 120.06 34.336 120.061 C 35.251 120.062 36.165 120.061 37.08 120.058 C 37.462 120.057 37.849 120.056 38.235 120.057 C 41.941 120.057 45.528 119.757 49.003 118.42 C 49.111 118.383 49.22 118.346 49.333 118.308 C 51.723 117.451 53.821 115.934 55.65 114.22 C 55.844 114.044 55.844 114.044 56.037 113.865 C 58.253 111.785 59.677 109.24 60.836 106.476 C 60.912 106.301 60.912 106.301 60.992 106.122 C 62.378 102.912 62.68 99.196 62.651 95.748 C 62.647 95.245 62.651 94.742 62.656 94.239 C 62.661 87.942 60.822 81.979 56.334 77.403 C 54.59 75.68 52.459 74.369 50.2 73.4 C 49.96 73.296 49.96 73.296 49.715 73.19 C 48.635 72.75 47.527 72.458 46.396 72.186 C 46.193 72.137 46.193 72.137 45.99 72.089 C 44.312 71.703 42.676 71.523 40.955 71.524 C 40.767 71.524 40.583 71.523 40.399 71.522 C 39.899 71.519 39.404 71.519 38.909 71.519 C 38.598 71.519 38.287 71.518 37.976 71.518 C 36.887 71.515 35.802 71.514 34.713 71.514 C 33.705 71.514 32.691 71.511 31.682 71.507 C 30.81 71.503 29.938 71.502 29.065 71.503 C 28.547 71.503 28.028 71.502 27.51 71.499 C 27.024 71.497 26.534 71.497 26.048 71.498 C 25.784 71.499 25.52 71.497 25.256 71.494 C 25.02 71.496 25.02 71.496 24.78 71.498 C 24.648 71.498 24.511 71.498 24.37 71.497 C 23.908 71.582 23.771 71.726 23.484 72.087 Z" fill="#39434C" style="stroke-width: 1;"/><path d="M 54.59 76.025 C 58.621 78.445 60.827 83.253 61.94 87.582 C 62.519 89.972 62.647 92.339 62.628 94.789 C 62.623 95.227 62.623 95.664 62.623 96.102 C 62.628 97.984 62.557 99.777 62.166 101.62 C 62.1 101.975 62.043 102.33 61.982 102.686 C 60.959 108.023 57.763 113.182 53.208 116.27 C 50.139 118.283 46.792 119.384 43.157 119.864 C 43.067 119.875 42.978 119.887 42.888 119.9 C 41.813 120.023 40.739 120.012 39.659 120.008 C 39.48 120.008 39.296 120.008 39.112 120.008 C 38.438 120.007 37.764 120.005 37.09 120.003 C 35.581 120.001 34.077 119.998 32.521 119.995 C 32.521 116.963 32.521 113.931 32.521 110.807 C 36.142 110.766 36.142 110.766 37.269 110.756 C 39.555 110.728 41.875 110.661 44.062 109.929 C 44.166 109.896 44.265 109.863 44.373 109.828 C 46.184 109.21 47.603 108.278 49.003 107.001 C 49.093 106.925 49.182 106.848 49.276 106.769 C 51.431 104.839 52.148 101.905 52.643 99.2 C 52.685 98.946 52.737 98.691 52.798 98.44 C 52.878 97.971 52.888 97.506 52.897 97.031 C 52.897 96.93 52.902 96.829 52.902 96.724 C 52.944 93.462 52.624 90.585 51.266 87.576 C 51.209 87.45 51.158 87.324 51.101 87.194 C 50.729 86.397 50.215 85.724 49.668 85.038 C 49.451 84.75 49.286 84.489 49.14 84.163 C 49.187 84.097 49.234 84.031 49.286 83.963 C 49.814 83.236 50.304 82.492 50.785 81.735 C 51.459 80.666 52.152 79.607 52.85 78.552 C 52.902 78.478 52.949 78.405 52.996 78.329 C 53.515 77.55 54.033 76.777 54.59 76.025 Z" fill="#E85356" style="stroke-width: 1;"/><path d="M 35.977 84.032 C 43.68 84.032 43.68 84.032 46.481 86.788 C 46.566 86.868 46.65 86.949 46.735 87.032 C 48.852 89.207 49.21 92.423 49.196 95.287 C 49.196 95.63 49.201 95.972 49.206 96.315 C 49.215 99.456 48.48 102.325 46.254 104.663 C 44.746 106.099 42.898 106.731 40.861 107.034 C 40.729 107.056 40.597 107.079 40.46 107.103 C 38.938 107.335 37.57 107.263 35.977 107.263 C 35.977 99.597 35.977 91.931 35.977 84.032 Z" fill="#F9F8F7" style="stroke-width: 1;"/><path d="M 51.266 104.113 C 51.808 104.225 52.157 104.49 52.586 104.827 C 52.742 104.948 52.897 105.069 53.053 105.19 C 53.133 105.252 53.213 105.313 53.293 105.377 C 53.637 105.645 53.981 105.909 54.33 106.172 C 54.396 106.225 54.467 106.276 54.538 106.33 C 55.335 106.936 56.141 107.53 56.947 108.124 C 57.673 108.66 58.394 109.205 59.106 109.757 C 57.267 113.948 52.925 116.874 48.791 118.546 C 46.98 119.244 45.076 119.611 43.157 119.864 C 43.067 119.875 42.978 119.887 42.888 119.9 C 41.813 120.023 40.739 120.012 39.659 120.008 C 39.48 120.008 39.296 120.008 39.112 120.008 C 38.438 120.007 37.764 120.005 37.09 120.003 C 35.581 120.001 34.077 119.998 32.521 119.995 C 32.521 116.963 32.521 113.931 32.521 110.807 C 36.142 110.766 36.142 110.766 37.269 110.756 C 39.555 110.728 41.875 110.661 44.062 109.929 C 44.166 109.896 44.265 109.863 44.373 109.828 C 46.184 109.21 47.603 108.278 49.003 107.001 C 49.093 106.926 49.182 106.851 49.272 106.774 C 50.101 106.031 50.667 105.038 51.266 104.113 Z" fill="#FAA826" style="stroke-width: 1;"/><path d="M 32.521 71.562 C 34.982 71.541 34.982 71.541 36.052 71.537 C 36.774 71.534 37.495 71.531 38.221 71.523 C 44.284 71.464 49.531 72.442 54.59 75.894 C 54.411 76.37 54.194 76.773 53.911 77.196 C 53.831 77.319 53.746 77.441 53.666 77.568 C 53.576 77.698 53.491 77.828 53.402 77.961 C 53.218 78.234 53.039 78.506 52.855 78.779 C 52.723 78.98 52.723 78.98 52.581 79.186 C 52.237 79.708 51.888 80.233 51.549 80.759 C 51.488 80.847 51.431 80.936 51.37 81.027 C 51.087 81.46 50.804 81.893 50.526 82.327 C 50.469 82.412 50.413 82.496 50.361 82.582 C 50.21 82.809 50.064 83.036 49.918 83.263 C 49.71 83.573 49.503 83.87 49.272 84.163 C 49.05 84.076 48.833 83.99 48.607 83.9 C 48.607 83.814 48.607 83.727 48.607 83.638 C 48.532 83.606 48.461 83.574 48.385 83.541 C 48.008 83.341 47.707 83.091 47.377 82.826 C 44.171 80.379 40.012 80.447 36.17 80.471 C 34.963 80.477 33.761 80.482 32.521 80.488 C 32.521 77.543 32.521 74.597 32.521 71.562 Z" fill="#36B2B2" style="stroke-width: 1;"/><path d="M 35.977 84.032 C 36.33 84.032 36.679 84.032 37.042 84.032 C 37.042 84.075 37.042 84.118 37.042 84.163 C 36.778 84.163 36.514 84.163 36.246 84.163 C 36.246 91.7 36.246 99.236 36.246 107.001 C 37.165 107.001 38.084 107.001 39.037 107.001 C 39.037 107.088 39.037 107.174 39.037 107.263 C 38.028 107.263 37.019 107.263 35.977 107.263 C 35.977 99.597 35.977 91.931 35.977 84.032 Z" fill="#D3D5D7" style="stroke-width: 1;"/></g></svg>